<svg id="Layer_1" data-name="Layer 1" xmlns="http://www.w3.org/2000/svg" width="31.88" height="36" viewBox="0 0 31.88 36">
  <defs>
    <style>
      .cls-1 {
        fill: #fff;
      }
    </style>
  </defs>
  <path class="cls-1" d="M21.25,42a3.92,3.92,0,0,1-1.6-.33,4,4,0,0,1-1.3-.87L8.05,30.5l2.8-2.9a4.94,4.94,0,0,1,1.58-1.08,2.7,2.7,0,0,1,1.82-.12l3.9.9V11a5,5,0,0,1,5-5,5,5,0,0,1,5,5v8.6h1.3a.93.93,0,0,1,.45.1c.13.07.28.13.45.2l7.4,3.6a3.59,3.59,0,0,1,1.78,1.78,4,4,0,0,1,.32,2.52l-1.8,10.9a3.79,3.79,0,0,1-1.4,2.38,4.07,4.07,0,0,1-2.6.92Zm-.4-3h14l2.15-12.45L27.9,22H25.15V11a2,2,0,1,0-4,0V31l-7.7-1.65L12.3,30.45Zm0,0h0Z" transform="translate(-8.05 -6)"/>
</svg>
